<svg width="84" height="88" viewBox="0 0 84 88" fill="none" xmlns="http://www.w3.org/2000/svg">
<g clip-path="url(#clip0_87_3866)">
<path d="M82.0499 62.48C81.6099 61.424 81.1699 60.28 80.7299 59.312C80.0259 57.728 79.3219 56.232 78.7059 54.824L78.6179 54.736C72.5459 41.536 66.0339 28.16 59.1699 14.96L58.9059 14.432C58.2019 13.112 57.4979 11.704 56.7939 10.296C55.9139 8.712 55.0339 7.04 53.6259 5.456C50.8099 1.936 46.7619 0 42.4499 0C38.0499 0 34.0899 1.936 31.1859 5.28C29.8659 6.864 28.8979 8.536 28.0179 10.12C27.3139 11.528 26.6099 12.936 25.9059 14.256L25.6419 14.784C18.8659 27.984 12.2659 41.36 6.19392 54.56L6.10592 54.736C5.48991 56.144 4.78591 57.64 4.08191 59.224C3.64191 60.192 3.20192 61.248 2.76192 62.392C1.61792 65.648 1.26592 68.728 1.70592 71.896C2.67392 78.496 7.07391 84.04 13.1459 86.504C15.4339 87.472 17.8099 87.912 20.2739 87.912C20.9779 87.912 21.8579 87.824 22.5619 87.736C25.4659 87.384 28.4579 86.416 31.3619 84.744C34.9699 82.72 38.4019 79.816 42.2739 75.592C46.1459 79.816 49.6659 82.72 53.1859 84.744C56.0899 86.416 59.0819 87.384 61.9859 87.736C62.6899 87.824 63.5699 87.912 64.2739 87.912C66.7379 87.912 69.2019 87.472 71.4019 86.504C77.5619 84.04 81.8739 78.408 82.8419 71.896C83.5459 68.816 83.1939 65.736 82.0499 62.48ZM42.3619 67.056C37.6099 61.072 34.5299 55.44 33.4739 50.688C33.0339 48.664 32.9459 46.904 33.2099 45.32C33.3859 43.912 33.9139 42.68 34.6179 41.624C36.2899 39.248 39.1059 37.752 42.3619 37.752C45.6179 37.752 48.5219 39.16 50.1059 41.624C50.8099 42.68 51.3379 43.912 51.5139 45.32C51.7779 46.904 51.6899 48.752 51.2499 50.688C50.1939 55.352 47.1139 60.984 42.3619 67.056ZM77.4739 71.192C76.8579 75.768 73.7779 79.728 69.4659 81.488C67.3539 82.368 65.0659 82.632 62.7779 82.368C60.5779 82.104 58.3779 81.4 56.0899 80.08C52.9219 78.32 49.7539 75.592 46.0579 71.544C51.8659 64.416 55.3859 57.904 56.7059 52.096C57.3219 49.368 57.4099 46.904 57.1459 44.616C56.7939 42.416 56.0019 40.392 54.7699 38.632C52.0419 34.672 47.4659 32.384 42.3619 32.384C37.2579 32.384 32.6819 34.76 29.9539 38.632C28.7219 40.392 27.9299 42.416 27.5779 44.616C27.2259 46.904 27.3139 49.456 28.0179 52.096C29.3379 57.904 32.9459 64.504 38.6659 71.632C35.0579 75.68 31.8019 78.408 28.6339 80.168C26.3459 81.488 24.1459 82.192 21.9459 82.456C19.5699 82.72 17.2819 82.368 15.2579 81.576C10.9459 79.816 7.86591 75.856 7.24992 71.28C6.98592 69.08 7.16191 66.88 8.04191 64.416C8.30591 63.536 8.74591 62.656 9.18591 61.6C9.80189 60.192 10.5059 58.696 11.2099 57.2L11.2979 57.024C17.3699 43.912 23.8819 30.536 30.6579 17.512L30.9219 16.984C31.6259 15.664 32.3299 14.256 33.0339 12.936C33.7379 11.528 34.5299 10.208 35.4979 9.064C37.3459 6.952 39.8099 5.808 42.5379 5.808C45.2659 5.808 47.7299 6.952 49.5779 9.064C50.5459 10.208 51.3379 11.528 52.0419 12.936C52.7459 14.256 53.4499 15.664 54.1539 16.984L54.4179 17.512C61.1059 30.624 67.6179 44 73.6899 57.112V57.2C74.3939 58.608 75.0099 60.192 75.7139 61.6C76.1539 62.656 76.5939 63.536 76.8579 64.416C77.5619 66.704 77.8259 68.904 77.4739 71.192Z" fill="#070707"/>
</g>
<defs>
<clipPath id="clip0_87_3866">
<rect width="82.72" height="88" fill="white" transform="translate(0.649902)"/>
</clipPath>
</defs>
</svg>
