<svg width="101" height="87" viewBox="0 0 101 87" fill="none" xmlns="http://www.w3.org/2000/svg">
<path fill-rule="evenodd" clip-rule="evenodd" d="M87.3338 60.9737V1.88703H63.3264C61.7695 1.88703 60.231 3.6133 60.231 5.15641V10.381C60.231 10.381 53.8571 0.788086 32.8673 0.788086C20.3164 0.788086 9.78942 8.18309 4.38628 19.287C-0.0644573 28.4587 -0.728405 39.0589 0.626963 49.1417C1.43744 55.195 3.00344 61.2164 5.84695 66.6195C6.10795 67.1095 6.38269 67.5948 6.66658 68.0756C15.5131 83.2274 38.3712 90.6544 53.8525 80.9104C56.0962 79.4955 61.6825 75.5668 61.9664 72.6683C61.9664 72.6683 60.9728 81.7438 71.8203 83.7036C84.1789 85.9381 98.9506 81.7346 98.9506 81.7346V63.6936C98.9506 63.6936 97.1923 64.6552 92.1463 64.6552C87.0957 64.6552 87.3338 60.9737 87.3338 60.9737ZM61.5223 57.5486C61.5223 59.7557 55.3499 62.0635 53.7518 62.5855C50.0062 63.808 45.7845 63.9317 41.9016 63.4097C38.1652 62.906 34.3326 61.807 31.4158 59.4397C27.3405 56.1337 25.4494 50.7901 24.932 45.6022C24.4878 41.1332 25.0373 36.3528 26.9971 32.3782C28.0136 30.3269 29.3919 28.4861 31.2052 27.0209C34.9095 24.0262 40.1707 22.9777 44.9512 23.2845C46.92 23.4127 61.5223 25.6609 61.5223 28.3854V57.5486Z" fill="#070707"/>
</svg>
