<svg width="89" height="89" viewBox="0 0 89 89" fill="none" xmlns="http://www.w3.org/2000/svg">
<g clip-path="url(#clip0_87_3855)">
<path d="M87.5672 22.283C87.5672 10.264 77.824 0.52004 65.8051 0.52004H22.281C19.4226 0.516151 16.5916 1.07718 13.9506 2.17092C11.3097 3.26466 8.91099 4.86954 6.89224 6.89333C-1.60577 15.3928 -1.60577 29.1768 6.89224 37.6719L14.6425 45.4227C6.39022 48.5159 0.515869 56.4754 0.515869 65.8084C0.515869 77.8271 10.2592 87.5713 22.2782 87.5713H65.8051C68.6634 87.575 71.4943 87.014 74.1351 85.9199C76.7757 84.826 79.1743 83.221 81.193 81.1969C89.6918 72.6976 89.6918 58.9137 81.1928 50.4183L73.4424 42.6678C81.6932 39.5752 87.5672 31.6148 87.5672 22.283ZM12.8626 75.2281C11.034 73.3988 9.77763 71.0767 9.24677 68.5453C8.71587 66.0138 8.9335 63.3826 9.87309 60.9728C10.8126 58.563 12.4335 56.4789 14.5377 54.9753C16.642 53.4713 19.1385 52.6126 21.7226 52.504L48.3467 79.1307H22.2775C20.528 79.1349 18.7954 78.7919 17.1793 78.1223C15.5633 77.4521 14.0961 76.4687 12.8626 75.2281ZM75.2224 56.3917C77.7202 58.8896 79.1235 62.2774 79.1235 65.8101C79.1235 69.3425 77.7202 72.7303 75.2224 75.2281C72.7248 77.7259 69.3372 79.1292 65.8051 79.1292C62.2728 79.1292 58.8852 77.7259 56.3876 75.2281L12.8626 31.7013C10.3804 29.2 8.99033 25.817 8.99695 22.293C9.00362 18.7691 10.4064 15.3913 12.898 12.8995C15.3897 10.4077 18.7672 9.00482 22.2909 8.99819C25.8146 8.99157 29.1974 10.3817 31.6983 12.8641L75.2224 56.3917ZM75.2224 31.7013C72.8665 34.0693 69.7014 35.4579 66.3633 35.588L39.7383 8.96315H65.8077C68.4415 8.96387 71.016 9.74556 73.2057 11.2094C75.3956 12.6732 77.1022 14.7535 78.1098 17.1871C79.1174 19.6207 79.381 22.2986 78.8671 24.8819C78.3531 27.4656 77.0849 29.8384 75.2224 31.7013Z" fill="#070707"/>
</g>
<defs>
<clipPath id="clip0_87_3855">
<rect width="87.5966" height="87.5966" fill="white" transform="translate(0.479492 0.52002)"/>
</clipPath>
</defs>
</svg>
