<svg width="88" height="89" viewBox="0 0 88 89" fill="none" xmlns="http://www.w3.org/2000/svg">
<g clip-path="url(#clip0_87_3856)">
<path d="M0.140137 5.51913V83.1175C0.140137 85.8783 2.37817 88.1166 5.13925 88.1166H82.7376C85.4985 88.1166 87.7367 85.8786 87.7367 83.1175V5.51913C87.7365 2.75806 85.4985 0.52002 82.7376 0.52002H5.13925C2.37817 0.52002 0.140137 2.75806 0.140137 5.51913ZM40.0765 24.4037H26.3296C24.949 24.4037 23.8261 25.5266 23.8261 26.9073V40.1311H12.3561V26.9073C12.3561 19.2025 18.6248 12.9337 26.3296 12.9337H40.0768L40.0765 24.4037ZM75.5208 61.7294C75.5208 69.4342 69.252 75.7029 61.5472 75.7029H47.8001V64.2329H61.5472C62.9279 64.2329 64.0507 63.11 64.0507 61.7294V48.5055H75.5208V61.7294Z" fill="#070707"/>
</g>
<defs>
<clipPath id="clip0_87_3856">
<rect width="87.5966" height="87.5966" fill="white" transform="translate(0.140137 0.52002)"/>
</clipPath>
</defs>
</svg>
