<svg width="89" height="89" viewBox="0 0 89 89" fill="none" xmlns="http://www.w3.org/2000/svg">
<path d="M88.4658 39.8267H61.7658L84.888 26.4827L80.3026 18.5407L57.1774 31.8845L70.5245 8.77364L62.5807 4.1894L49.2307 27.2945V0.612549H40.0539V27.2974L26.704 4.1894L18.7571 8.77364L32.1042 31.8787L8.98481 18.5407L4.39658 26.4827L27.5189 39.8267H0.818848V48.9979H27.516L4.39658 62.342L8.9819 70.2839L32.1071 56.9401L18.7571 80.0509L26.7011 84.6353L40.0539 61.5272V88.2091H49.2307V60.9548L62.8258 84.4892L70.2764 80.1911L56.678 56.6512L80.2967 70.2809L84.8851 62.3391L61.7658 48.995H88.4628V39.8267H88.4658ZM44.6423 56.8787C43.0041 56.879 41.382 56.5567 39.8686 55.9301C38.3553 55.3035 36.9799 54.3851 35.8215 53.2271C34.6632 52.0693 33.7441 50.6946 33.1171 49.1816C32.49 47.6686 32.1673 46.0471 32.167 44.4095C32.1667 42.7717 32.4891 41.1498 33.1159 39.6368C33.7427 38.1238 34.6612 36.7488 35.8196 35.5907C36.9776 34.4327 38.3524 33.5139 39.866 32.8869C41.3793 32.26 43.0012 31.9374 44.6394 31.9371C47.9474 31.9368 51.1205 33.2502 53.4601 35.5888C55.7998 37.9274 57.1144 41.0992 57.1147 44.4066C57.115 47.7137 55.8014 50.8861 53.4621 53.2251C51.1232 55.5644 47.9504 56.8783 44.6423 56.8787Z" fill="#070707"/>
</svg>
