<svg width="83" height="89" viewBox="0 0 83 89" fill="none" xmlns="http://www.w3.org/2000/svg">
<path d="M62.1944 42.3195C62.7975 42.2417 63.4006 42.2417 64.0037 42.3195C64.3344 41.5802 64.3928 40.2767 64.101 38.8954C63.673 36.8137 63.0699 35.5491 61.8636 35.7437C60.6574 35.9382 60.5991 37.4557 61.0465 39.5374C61.2605 40.6853 61.708 41.6969 62.1944 42.3195ZM51.747 43.9732C52.6225 44.3623 53.1478 44.6152 53.3618 44.3818C53.7314 44.0121 52.6808 42.553 51.0077 41.8331C49.0233 41.016 46.7665 41.2884 45.035 42.553C44.4513 42.981 43.9066 43.5646 43.9844 43.9343C44.1595 44.6541 45.9299 43.409 48.4007 43.2534C49.7431 43.1561 50.8715 43.5841 51.747 43.9732ZM49.996 44.9654C48.2256 45.2378 47.0778 46.23 47.3696 46.9304C47.5447 46.9887 47.6031 47.086 48.3813 46.7747C49.5486 46.3273 50.7937 46.2105 52.0388 46.3856C52.603 46.444 52.8754 46.4829 53.0116 46.2883C53.2645 45.8798 51.8832 44.7514 49.996 44.9654ZM60.5407 48.3117C61.2022 46.9693 58.4201 45.588 57.7586 46.9498C57.0971 48.2922 59.8987 49.6541 60.5407 48.3117ZM63.5951 44.3234C62.0971 44.3039 62.0387 47.3973 63.5368 47.4362C65.0543 47.4362 65.1126 44.3428 63.5951 44.3234ZM20.9496 59.6929C20.6966 59.7513 19.7823 59.9847 19.2959 59.226C18.2842 57.6696 21.4554 55.2572 19.8795 52.2416C18.1091 48.837 14.4516 49.5957 13.0508 51.1521C11.3582 53.0198 11.3582 55.7435 12.078 55.8408C12.9146 55.9575 12.8757 54.5762 13.5177 53.5646C14.2765 52.3973 15.8134 52.0665 16.9807 52.8253C16.9807 52.8253 17.0002 52.8253 17.0002 52.8447C19.257 54.3233 17.2725 56.3077 17.4476 58.4283C17.72 61.6773 21.0468 61.619 21.6499 60.1793C21.7278 60.0431 21.7083 59.8486 21.611 59.7318C21.611 59.9458 21.7278 59.5178 20.9496 59.6929ZM79.3927 56.3661C78.7312 54.0704 78.8869 54.5762 78.0697 52.3583C78.5561 51.6385 81.0464 47.6697 77.4666 43.9343C75.4433 41.8137 70.8519 40.7047 69.4511 40.3156C69.1593 38.0978 70.3655 28.876 65.2488 24.129C69.2955 19.9267 71.8247 15.2964 71.8247 11.3275C71.8052 3.70113 62.4278 1.38597 50.8715 6.17193L48.4202 7.20305C48.4007 7.18359 43.9844 2.86456 43.926 2.80619C30.7744 -8.67232 -10.4315 37.1055 2.73958 48.2339L5.61894 50.6657C4.84074 52.7474 4.56836 54.9848 4.82128 57.2027C5.48275 63.7201 11.8446 68.9925 17.9924 68.973C29.2569 94.9261 70.2293 94.965 80.8324 69.5567C81.1631 68.6812 82.6028 64.7512 82.6028 61.2882C82.6028 57.8252 80.6378 56.3661 79.3927 56.3661ZM17.7589 65.7629C13.3037 65.6462 8.49829 61.6384 8.03137 56.8914C6.82516 44.9459 22.506 42.2222 24.4126 54.479C25.3075 60.2571 23.4982 65.8796 17.7589 65.7629ZM14.1597 43.4868C11.2026 44.0705 8.59557 45.7436 7.00025 48.0588C6.04695 47.2611 4.27654 45.7242 3.96526 45.1405C1.43609 40.2962 6.74734 30.8994 10.4633 25.6076C19.6461 12.4948 34.0234 2.57273 40.6965 4.3626C41.786 4.67389 45.3657 8.81782 45.3657 8.81782C45.3657 8.81782 38.7121 12.5143 32.5448 17.6699C24.1986 24.0901 17.9146 33.3896 14.1597 43.4868ZM60.7352 63.2143C60.7352 63.2143 53.7703 64.2454 47.175 61.833C48.3813 57.903 52.4474 63.0197 65.9687 59.1482C68.9453 58.2922 72.8558 56.619 75.9102 54.2066C76.5717 55.7241 77.0386 57.3194 77.2915 58.9342C78.0114 58.798 80.0736 58.8369 79.5289 62.4555C78.8869 66.3271 77.2332 69.4788 74.4706 72.3776C72.739 74.2453 70.6768 75.8017 68.4006 76.9301C67.136 77.5916 65.7936 78.1558 64.4317 78.6033C54.0038 82.0079 43.3229 78.2725 39.8599 70.2181C39.5876 69.5956 39.3541 68.973 39.1595 68.3115C37.7004 63.0003 38.9455 56.6385 42.8366 52.6307C43.07 52.3778 43.3229 52.0665 43.3229 51.6969C43.284 51.3661 43.1673 51.0549 42.9533 50.8019C41.5914 48.8175 36.8638 45.4518 37.8171 38.9343C38.4981 34.2456 42.5836 30.9577 46.4163 31.1523L47.389 31.2106C49.0427 31.3079 50.4824 31.5219 51.8443 31.5803C54.1205 31.6776 56.1828 31.3468 58.5952 29.3235C59.4123 28.6426 60.0738 28.0395 61.1827 27.8644C62.0971 27.6309 63.0504 27.806 63.8286 28.2924C65.7741 29.5959 66.0465 32.7281 66.1438 35.0238C66.2021 36.3273 66.3578 39.518 66.4161 40.4129C66.5329 42.4946 67.0776 42.7864 68.1866 43.1366C68.8091 43.3506 69.3928 43.4868 70.2293 43.7397C72.7974 44.4596 74.3149 45.1989 75.3071 46.1327C75.813 46.6191 76.1242 47.2611 76.241 47.942C76.5522 50.1599 74.5289 52.9031 69.1593 55.3739C60.0543 59.5956 50.891 58.1949 49.568 58.0392C45.6381 57.5139 43.4007 62.5917 45.7548 66.0547C50.1711 72.5722 69.6262 69.9458 75.2682 61.8913C75.4044 61.6968 75.2877 61.5801 75.132 61.6968C66.9803 67.261 56.2022 69.1481 50.0739 66.7746C49.14 66.4049 47.1945 65.51 46.961 63.5256C55.4629 66.152 60.8131 63.6618 60.8131 63.6618C60.8131 63.6618 61.2411 63.1559 60.7352 63.2143ZM31.1246 25.5492C34.393 21.7749 38.4008 18.487 42.0194 16.6582C42.0778 16.6193 42.1751 16.6388 42.214 16.7166C42.2334 16.7555 42.2334 16.8139 42.214 16.8528C41.9222 17.3781 41.3774 18.487 41.2023 19.3236C41.1829 19.4014 41.2412 19.4792 41.3191 19.4987C41.358 19.5181 41.3969 19.4987 41.4358 19.4792C43.6731 17.9617 47.5836 16.308 50.9882 16.1135C51.0661 16.1135 51.1439 16.1719 51.1439 16.2497C51.1439 16.308 51.1244 16.3469 51.0855 16.3859C50.5213 16.8139 50.0155 17.3197 49.5875 17.9034C49.5486 17.9617 49.5486 18.059 49.6264 18.0979C49.6458 18.1174 49.6847 18.1174 49.7042 18.1174C52.0972 18.1368 55.4824 18.9734 57.7002 20.2185C57.8559 20.2963 57.7392 20.5882 57.5835 20.5493C44.0233 17.4364 33.5759 24.1679 31.358 25.7827C31.2802 25.8216 31.2024 25.8021 31.144 25.7438C31.0857 25.6659 31.0857 25.5881 31.1246 25.5492Z" fill="black"/>
</svg>
