<svg width="88" height="88" viewBox="0 0 88 88" fill="none" xmlns="http://www.w3.org/2000/svg">
<path d="M43.8752 0.228271C19.7606 0.228271 0.210938 19.7774 0.210938 43.892C0.210938 68.0077 19.7606 87.5553 43.8752 87.5553C67.9924 87.5553 87.54 68.0077 87.54 43.892C87.54 19.779 67.9924 0.230357 43.8747 0.230357L43.8752 0.228271ZM63.8994 63.204C63.1173 64.4866 61.4383 64.8933 60.1557 64.106C49.9038 57.8439 36.9979 56.4257 21.7988 59.8982C20.3342 60.2319 18.8742 59.3143 18.5405 57.8491C18.2053 56.3839 19.1193 54.924 20.5876 54.5903C37.2205 50.7887 51.4878 52.4265 62.9974 59.4603C64.28 60.2476 64.6867 61.9213 63.8994 63.204ZM69.2438 51.3132C68.2584 52.9166 66.1623 53.4223 64.5616 52.4369C52.8247 45.2211 34.9336 43.1318 21.0511 47.3458C19.2507 47.8897 17.3491 46.875 16.8027 45.0777C16.2604 43.2773 17.2756 41.3794 19.0729 40.8319C34.9305 36.0203 54.6444 38.351 68.1228 46.6336C69.7235 47.6191 70.2293 49.7151 69.2438 51.3138V51.3132ZM69.7027 38.9329C55.6299 30.5742 32.4115 29.8057 18.9754 33.8836C16.8178 34.538 14.5361 33.32 13.8823 31.1624C13.2284 29.0037 14.4454 26.7236 16.6045 26.0677C32.0283 21.3855 57.6686 22.2901 73.8708 31.9085C75.8157 33.0603 76.4518 35.5667 75.2995 37.5048C74.1524 39.4455 71.6392 40.0852 69.7048 38.9329H69.7027Z" fill="#070707"/>
</svg>
