<svg width="81" height="84" viewBox="0 0 81 84" fill="none" xmlns="http://www.w3.org/2000/svg">
<path fill-rule="evenodd" clip-rule="evenodd" d="M13.8952 14.7269C16.5078 16.8496 17.488 16.6877 22.3941 16.3603L68.6462 13.5831C69.6271 13.5831 68.8114 12.6045 68.4842 12.4418L60.8028 6.88872C59.3309 5.746 57.37 4.43737 53.6117 4.76473L8.82578 8.03127C7.19243 8.19322 6.86622 9.00989 7.51665 9.66445L13.8952 14.7269ZM16.6721 25.506V74.1712C16.6721 76.7867 17.9791 77.7651 20.9207 77.6033L71.7517 74.662C74.6949 74.5002 75.0227 72.7013 75.0227 70.5767V22.238C75.0227 20.1168 74.2067 18.9729 72.4051 19.1362L19.2862 22.238C17.3258 22.4027 16.6719 23.3833 16.6719 25.506H16.6721ZM66.8523 28.1165C67.1782 29.5877 66.8523 31.0576 65.3783 31.2231L62.9293 31.711V67.6388C60.8028 68.7817 58.8419 69.4351 57.2079 69.4351C54.5918 69.4351 53.9366 68.6179 51.977 66.1697L35.9568 41.02V65.353L41.0263 66.4969C41.0263 66.4969 41.0263 69.4351 36.9363 69.4351L25.6611 70.0892C25.3336 69.4351 25.6611 67.8034 26.8049 67.4765L29.7472 66.661V34.4881L25.662 34.1607C25.3343 32.6895 26.1503 30.5682 28.4402 30.4036L40.5358 29.5882L57.2079 55.0653V32.5276L52.9571 32.0397C52.6309 30.2411 53.9366 28.9351 55.5713 28.7732L66.8523 28.1165ZM5.06547 3.62218L51.65 0.191551C57.3707 -0.299082 58.8426 0.0296036 62.4381 2.64141L77.3085 13.0931C79.7622 14.8904 80.58 15.3797 80.58 17.3389V74.662C80.58 78.2546 79.2712 80.3792 74.6957 80.7043L20.597 83.9712C17.1622 84.1349 15.5276 83.6454 13.7288 81.3577L2.77805 67.1497C0.816014 64.5342 0 62.5776 0 60.2886V9.33593C0 6.39808 1.30913 3.9474 5.06547 3.62218Z" fill="#070707"/>
</svg>
