<svg width="65" height="65" viewBox="0 0 65 65" fill="none" xmlns="http://www.w3.org/2000/svg">
<path d="M32.9507 0.880489C30.9804 2.26548 30.8692 5.17822 32.7282 6.71324L57.0627 26.8073C58.9657 28.3787 57.894 31.4898 55.4393 31.5C48.7302 31.5281 39.6826 31.4754 32.7871 31.0998C23.7138 30.6053 11.0125 29.1503 4.69997 28.3858C2.63837 28.1361 0.820847 29.7661 0.820801 31.8704C0.820755 33.9361 2.57262 35.5535 4.60208 35.3626C10.8833 34.7711 23.6771 33.6359 32.7871 33.2893C39.6905 33.0268 48.7423 33.0549 55.4509 33.1322C57.8981 33.1605 58.9559 36.2642 57.0584 37.831L32.7282 57.9214C30.8692 59.4566 30.9804 62.3694 32.9507 63.7543C34.5502 64.8785 36.7414 64.5123 37.8999 62.9271L47.8982 49.2468C50.7282 45.3745 54.0547 41.902 57.7899 38.9205L64.3485 33.6792C65.213 32.9883 65.2138 31.6604 64.35 30.9685L57.7899 25.7142C54.0547 22.7328 50.7282 19.2601 47.8982 15.388L37.8999 1.7077C36.7414 0.122492 34.5502 -0.243748 32.9507 0.880489Z" fill="black"/>
</svg>
