<svg width="148" height="82" viewBox="0 0 148 82" fill="none" xmlns="http://www.w3.org/2000/svg">
<path d="M38.4569 37.1999L28.8998 9.38544L18.7426 37.1999H38.4569ZM24.4426 0.0425325H34.0855L56.9285 63H47.5856L41.1998 44.1428H16.2997L9.48536 63H0.742462L24.4426 0.0425325ZM63.8714 17.0998H71.2V25.0284C71.8 23.4855 73.2714 21.6141 75.6143 19.4141C77.9571 17.1855 80.6572 16.0712 83.7143 16.0712C83.8572 16.0712 84.1 16.0855 84.4429 16.114C84.7858 16.1426 85.3715 16.1998 86.2 16.2855V24.4284C85.7429 24.3427 85.3143 24.2855 84.9143 24.2569C84.5429 24.2284 84.1286 24.2141 83.6715 24.2141C79.7857 24.2141 76.8 25.4712 74.7143 27.9855C72.6285 30.4713 71.5857 33.3427 71.5857 36.5999V63H63.8714V17.0998ZM121.557 17.0998H130.086C129 20.0426 126.586 26.757 122.843 37.2427C120.043 45.1285 117.7 51.5571 115.814 56.5285C111.357 68.2429 108.214 75.3858 106.386 77.9572C104.557 80.5287 101.414 81.8144 96.9572 81.8144C95.8715 81.8144 95.0287 81.7715 94.4287 81.6858C93.8572 81.6001 93.1429 81.443 92.2858 81.2144V74.1858C93.6287 74.5572 94.6001 74.7858 95.2001 74.8715C95.8001 74.9572 96.3287 75.0001 96.7858 75.0001C98.2144 75.0001 99.2573 74.7572 99.9144 74.2715C100.6 73.8143 101.172 73.2429 101.629 72.5572C101.772 72.3286 102.286 71.1572 103.172 69.0429C104.057 66.9286 104.7 65.3572 105.1 64.3286L88.1286 17.0998H96.8715L109.172 54.4714L121.557 17.0998Z" fill="#090909"/>
<path d="M138.615 53.6571H147.572V63H138.615V53.6571Z" fill="#FF6C37"/>
</svg>
